<svg width="32" height="32" viewBox="0 0 32 32" fill="none" xmlns="http://www.w3.org/2000/svg">
<g id="Component 1">
<path id="Vector (Stroke)" fill-rule="evenodd" clip-rule="evenodd" d="M14.7567 3.02384C15.4506 2.54804 16.3635 2.54804 17.0574 3.02384L17.0653 3.02926L28.4071 11.0487C28.922 11.425 29.2404 12.0366 29.2404 12.6803V27.267C29.2404 28.3685 28.3419 29.267 27.2404 29.267H20.5737C19.4722 29.267 18.5737 28.3685 18.5737 27.267V20.6137C18.5737 20.2485 18.2722 19.947 17.9071 19.947H13.9071C13.5419 19.947 13.2404 20.2485 13.2404 20.6137V27.2803C13.2404 28.3818 12.3419 29.2803 11.2404 29.2803H4.57373C3.47221 29.2803 2.57373 28.3818 2.57373 27.2803V12.6803C2.57373 12.0197 2.89508 11.4229 3.40705 11.0487L3.41547 11.0426L14.7567 3.02384ZM15.514 4.12123L4.19021 12.1278C4.01102 12.2604 3.90706 12.4624 3.90706 12.6803V27.2803C3.90706 27.6455 4.20859 27.947 4.57373 27.947H11.2404C11.6055 27.947 11.9071 27.6455 11.9071 27.2803V20.6137C11.9071 19.5121 12.8055 18.6137 13.9071 18.6137H17.9071C19.0086 18.6137 19.9071 19.5121 19.9071 20.6137V27.267C19.9071 27.6321 20.2086 27.9337 20.5737 27.9337H27.2404C27.6055 27.9337 27.9071 27.6321 27.9071 27.267V12.6803C27.9071 12.4721 27.8002 12.2584 27.6239 12.1278L16.3001 4.12123C16.0621 3.96002 15.752 3.96002 15.514 4.12123Z" fill="#8F839D"/>
</g>
</svg>
