<svg width="45" height="44" viewBox="0 0 45 44" fill="none" xmlns="http://www.w3.org/2000/svg">
<g filter="url(#filter0_d_43_9775)">
<circle cx="22" cy="21" r="20" fill="url(#paint0_linear_43_9775)"/>
<g clip-path="url(#clip0_43_9775)">
<path d="M30.317 13.575C28.7873 12.846 27.147 12.3089 25.4319 12.0013C25.4007 11.9954 25.3695 12.0102 25.3534 12.0399C25.1424 12.4296 24.9087 12.938 24.7451 13.3376C22.9004 13.0508 21.0652 13.0508 19.2583 13.3376C19.0946 12.9291 18.8525 12.4296 18.6406 12.0399C18.6245 12.0112 18.5933 11.9963 18.562 12.0013C16.8479 12.3079 15.2076 12.845 13.6769 13.575C13.6637 13.5809 13.6523 13.5908 13.6448 13.6037C10.5334 18.4316 9.68105 23.1409 10.0992 27.7918C10.1011 27.8145 10.1134 27.8363 10.1304 27.8501C12.1832 29.4159 14.1717 30.3665 16.1233 30.9965C16.1545 31.0064 16.1876 30.9946 16.2075 30.9679C16.6691 30.3131 17.0806 29.6227 17.4335 28.8966C17.4543 28.8541 17.4344 28.8036 17.3919 28.7868C16.7391 28.5297 16.1176 28.2161 15.5197 27.86C15.4724 27.8313 15.4687 27.7611 15.5122 27.7275C15.638 27.6295 15.7638 27.5277 15.884 27.4248C15.9057 27.406 15.936 27.402 15.9615 27.4139C19.8893 29.2765 24.1415 29.2765 28.023 27.4139C28.0485 27.4011 28.0788 27.405 28.1015 27.4238C28.2216 27.5267 28.3475 27.6295 28.4742 27.7275C28.5177 27.7611 28.5149 27.8313 28.4676 27.86C27.8697 28.223 27.2482 28.5297 26.5945 28.7858C26.552 28.8027 26.533 28.8541 26.5538 28.8966C26.9143 29.6216 27.3258 30.3121 27.7789 30.9669C27.7978 30.9946 27.8319 31.0064 27.8631 30.9965C29.8241 30.3665 31.8126 29.4159 33.8654 27.8501C33.8834 27.8363 33.8948 27.8155 33.8967 27.7928C34.3971 22.4158 33.0585 17.7452 30.3482 13.6047C30.3416 13.5908 30.3303 13.5809 30.317 13.575ZM18.02 24.9599C16.8375 24.9599 15.8631 23.8323 15.8631 22.4475C15.8631 21.0627 16.8186 19.9351 18.02 19.9351C19.2309 19.9351 20.1958 21.0726 20.1769 22.4475C20.1769 23.8323 19.2214 24.9599 18.02 24.9599ZM25.9947 24.9599C24.8123 24.9599 23.8379 23.8323 23.8379 22.4475C23.8379 21.0627 24.7933 19.9351 25.9947 19.9351C27.2056 19.9351 28.1705 21.0726 28.1516 22.4475C28.1516 23.8323 27.2056 24.9599 25.9947 24.9599Z" fill="#1F073C"/>
</g>
</g>
<defs>
<filter id="filter0_d_43_9775" x="0.5" y="0" width="44" height="44" filterUnits="userSpaceOnUse" color-interpolation-filters="sRGB">
<feFlood flood-opacity="0" result="BackgroundImageFix"/>
<feColorMatrix in="SourceAlpha" type="matrix" values="0 0 0 0 0 0 0 0 0 0 0 0 0 0 0 0 0 0 127 0" result="hardAlpha"/>
<feOffset dx="0.5" dy="1"/>
<feGaussianBlur stdDeviation="1"/>
<feComposite in2="hardAlpha" operator="out"/>
<feColorMatrix type="matrix" values="0 0 0 0 0.188235 0 0 0 0 0.203922 0 0 0 0 0.141176 0 0 0 0.7 0"/>
<feBlend mode="normal" in2="BackgroundImageFix" result="effect1_dropShadow_43_9775"/>
<feBlend mode="normal" in="SourceGraphic" in2="effect1_dropShadow_43_9775" result="shape"/>
</filter>
<linearGradient id="paint0_linear_43_9775" x1="22" y1="1" x2="22" y2="41" gradientUnits="userSpaceOnUse">
<stop stop-color="#876338"/>
<stop offset="0.341" stop-color="#B09159"/>
<stop offset="1" stop-color="#FFE998"/>
</linearGradient>
<clipPath id="clip0_43_9775">
<rect x="10" y="12" width="24" height="19" rx="9.5" fill="white"/>
</clipPath>
</defs>
</svg>
