<svg width="32" height="32" viewBox="0 0 32 32" fill="none" xmlns="http://www.w3.org/2000/svg">
<g id="Component 3">
<path id="Vector (Stroke)" fill-rule="evenodd" clip-rule="evenodd" d="M4.6665 6.65971C4.30136 6.65971 3.99984 6.95973 3.99984 7.32306V24.6763C3.99984 25.0396 4.30136 25.3396 4.6665 25.3396H27.3332C27.6983 25.3396 27.9998 25.0396 27.9998 24.6763V7.32306C27.9998 6.95973 27.6983 6.65971 27.3332 6.65971H4.6665ZM2.6665 7.32306C2.6665 6.22701 3.56498 5.33301 4.6665 5.33301H27.3332C28.4347 5.33301 29.3332 6.22701 29.3332 7.32306V24.6763C29.3332 25.7723 28.4347 26.6663 27.3332 26.6663H4.6665C3.56498 26.6663 2.6665 25.7723 2.6665 24.6763V7.32306Z" fill="#8F839D"/>
<path id="Vector (Stroke)_2" fill-rule="evenodd" clip-rule="evenodd" d="M29.2118 8.28306C29.4237 8.58417 29.3513 9.00004 29.0502 9.21193L17.1977 17.5526C16.4865 18.1576 15.506 18.1489 14.792 17.5548L2.94928 9.21172C2.64828 8.99967 2.57617 8.58377 2.78822 8.28277C3.00027 7.98178 3.41618 7.90967 3.71718 8.12172L15.5838 16.4817C15.6015 16.4942 15.6185 16.5075 15.6349 16.5215C15.8685 16.7226 16.1337 16.7144 16.3445 16.5277C16.3631 16.5112 16.3826 16.4958 16.4029 16.4815L28.2829 8.12152C28.584 7.90963 28.9999 7.98195 29.2118 8.28306Z" fill="#8F839D"/>
</g>
</svg>
