<svg width="32" height="32" viewBox="0 0 32 32" fill="none" xmlns="http://www.w3.org/2000/svg">
<g id="Component 1">
<path id="Vector (Stroke)" fill-rule="evenodd" clip-rule="evenodd" d="M11.9797 6.71793C11.8654 5.9161 11.1773 5.32403 10.3678 5.33345L10.3601 5.33354L6.94918 5.33349C6.94801 5.33361 6.93936 5.33422 6.91309 5.33685C6.91138 5.33702 6.90952 5.33721 6.90751 5.33741C6.88274 5.33992 6.83638 5.34461 6.78335 5.34624C5.9068 5.43163 5.26163 6.20795 5.34343 7.08017C5.7061 10.4942 6.87025 13.766 8.73273 16.6374L8.736 16.6424C10.4301 19.3065 12.6932 21.5695 15.3699 23.2635L15.3762 23.2675C18.2473 25.1298 21.5211 26.282 24.9265 26.6575C24.9433 26.6594 24.9601 26.6619 24.9767 26.665C24.9793 26.6652 24.9837 26.6655 24.9904 26.6658C25.0095 26.6667 25.0313 26.6668 25.0668 26.6668C25.9468 26.6668 26.6668 25.9437 26.6668 25.0535V21.6248C26.6857 20.8017 26.0926 20.1109 25.2888 20.0081L25.2848 20.0076C24.1421 19.8543 23.0272 19.5755 21.9411 19.1717L21.9327 19.1686C21.3523 18.9439 20.6849 19.0848 20.2448 19.5249L20.2427 19.5271L18.7893 20.9671C18.5767 21.1777 18.2499 21.2209 17.9899 21.0727C15.0339 19.3875 12.5874 16.9553 10.9009 13.997C10.7516 13.7351 10.7967 13.4055 11.0109 13.1933L12.4602 11.7572C12.8893 11.3161 13.032 10.6439 12.8152 10.0591M11.9797 6.71793C12.133 7.85972 12.4117 8.97383 12.8152 10.0591L11.9797 6.71793ZM10.3565 4.00016C11.8378 3.98497 13.0938 5.0712 13.3002 6.53363L13.3009 6.53819C13.4409 7.58215 13.6955 8.60064 14.065 9.5945C14.4608 10.6615 14.2048 11.8809 13.4099 12.6931L13.4027 12.7005L12.3178 13.7753C13.7844 16.1827 15.8049 18.1926 18.2157 19.6584L19.302 18.5821C19.3023 18.5818 19.3027 18.5814 19.303 18.5811C20.1152 17.7697 21.3382 17.5107 22.4096 17.9234C23.4016 18.2919 24.4182 18.5459 25.4601 18.6858C26.946 18.877 28.0304 20.1547 28.0001 21.6474V25.0535C28.0001 26.6699 26.6934 28.0002 25.0668 28.0002C25.0635 28.0002 25.0597 28.0002 25.0556 28.0002C25.002 28.0003 24.881 28.0007 24.7582 27.9804C21.1594 27.5801 17.6957 26.3606 14.6538 24.3882C11.8127 22.5896 9.41084 20.1876 7.6125 17.3605C5.63659 14.3134 4.40147 10.8408 4.01714 7.21714L4.01643 7.21037C3.86069 5.58379 5.07129 4.15367 6.69023 4.01589M10.3565 4.00016H6.94676C6.87906 4.00016 6.81634 4.0065 6.786 4.00957C6.784 4.00977 6.78214 4.00996 6.78042 4.01013C6.7538 4.01279 6.74527 4.01339 6.74429 4.0135" fill="#8F839D"/>
</g>
</svg>
