<svg width="50" height="40" viewBox="0 0 50 40" fill="none" xmlns="http://www.w3.org/2000/svg">
<g id="Youtube">
<path id="Vector" d="M48.8778 33.2C48.3791 36 46.2593 38.1333 43.6409 38.5333C39.5262 39.2 32.6683 40 24.9377 40C17.3317 40 10.4738 39.2 6.23441 38.5333C3.61596 38.1333 1.49626 36 0.997506 33.2C0.498753 30.1333 0 25.6 0 20C0 14.4 0.498753 9.86667 0.997506 6.8C1.49626 4 3.61596 1.86667 6.23441 1.46667C10.3491 0.800001 17.207 0 24.9377 0C32.6683 0 39.4015 0.800001 43.6409 1.46667C46.2593 1.86667 48.3791 4 48.8778 6.8C49.3766 9.86667 50 14.4 50 20C49.8753 25.6 49.3766 30.1333 48.8778 33.2Z" fill="url(#paint0_linear_4301_529)"/>
<path id="Vector_2" d="M19.8071 29.5965V10.4033L35.1917 19.9999L19.8071 29.5965Z" fill="#1F073C"/>
</g>
<defs>
<linearGradient id="paint0_linear_4301_529" x1="25" y1="0" x2="25" y2="40" gradientUnits="userSpaceOnUse">
<stop stop-color="#876338"/>
<stop offset="0.341" stop-color="#B09159"/>
<stop offset="1" stop-color="#FFE998"/>
</linearGradient>
</defs>
</svg>
