<svg width="24" height="24" viewBox="0 0 24 24" fill="none" xmlns="http://www.w3.org/2000/svg">
<g id="Youtube">
<path id="Vector" d="M23.4613 19.92C23.2219 21.6 22.2045 22.88 20.9476 23.12C18.9726 23.52 15.6808 24 11.9701 24C8.3192 24 5.02743 23.52 2.99252 23.12C1.73566 22.88 0.718205 21.6 0.478803 19.92C0.239402 18.08 0 15.36 0 12C0 8.64 0.239402 5.92 0.478803 4.08C0.718205 2.4 1.73566 1.12 2.99252 0.88C4.96758 0.48 8.25935 0 11.9701 0C15.6808 0 18.9127 0.48 20.9476 0.88C22.2045 1.12 23.2219 2.4 23.4613 4.08C23.7008 5.92 24 8.64 24 12C23.9401 15.36 23.7008 18.08 23.4613 19.92Z" fill="url(#paint0_linear_4301_2338)"/>
<path id="Vector_2" d="M9.50684 17.7581V6.24219L16.8915 12.0001L9.50684 17.7581Z" fill="#14071F"/>
</g>
<defs>
<linearGradient id="paint0_linear_4301_2338" x1="12" y1="0" x2="12" y2="24" gradientUnits="userSpaceOnUse">
<stop stop-color="#876338"/>
<stop offset="0.341" stop-color="#B09159"/>
<stop offset="1" stop-color="#FFE998"/>
</linearGradient>
</defs>
</svg>
