<svg width="31" height="31" viewBox="0 0 31 31" fill="none" xmlns="http://www.w3.org/2000/svg">
<path d="M25.98 25.4561C26.5558 25.4561 27.0362 25.2636 27.4212 24.8786C27.8062 24.4936 27.9992 24.0127 28 23.4361V9.97606C28 9.40022 27.8071 8.9198 27.4212 8.5348C27.0354 8.1498 26.555 7.95689 25.98 7.95605H22.2838L19.9712 5.45605H13.48V6.70605H19.43L21.735 9.20605H25.98C26.205 9.20605 26.3896 9.27814 26.5337 9.4223C26.6779 9.56647 26.75 9.75105 26.75 9.97606V23.4373C26.75 23.6615 26.6779 23.8456 26.5337 23.9898C26.3896 24.134 26.205 24.2061 25.98 24.2061H7.51875C7.29458 24.2061 7.11042 24.134 6.96625 23.9898C6.82208 23.8456 6.75 23.6611 6.75 23.4361V13.4361H5.5V23.4361C5.5 24.0119 5.69291 24.4923 6.07875 24.8773C6.46458 25.2623 6.94458 25.4552 7.51875 25.4561H25.98ZM6.75 9.20605V6.70605H9.25V5.45605H6.75V2.95605H5.5V5.45605H3V6.70605H5.5V9.20605H6.75ZM16.75 21.3686C15.4442 21.3686 14.3404 20.9181 13.4387 20.0173C12.5371 19.1165 12.0863 18.0127 12.0863 16.7061C12.0863 15.3994 12.5371 14.2956 13.4387 13.3948C14.3404 12.494 15.4442 12.0431 16.75 12.0423C18.0558 12.0415 19.1596 12.4923 20.0613 13.3948C20.9629 14.2973 21.4138 15.4011 21.4137 16.7061C21.4137 18.0111 20.9629 19.1148 20.0613 20.0173C19.1596 20.9198 18.0558 21.3706 16.75 21.3698M16.75 20.1198C17.7208 20.1198 18.5325 19.7936 19.185 19.1411C19.8375 18.4886 20.1638 17.6769 20.1637 16.7061C20.1637 15.7352 19.8375 14.9236 19.185 14.2711C18.5325 13.6186 17.7208 13.2923 16.75 13.2923C15.7792 13.2923 14.9675 13.6186 14.315 14.2711C13.6625 14.9236 13.3363 15.7352 13.3363 16.7061C13.3363 17.6769 13.6625 18.4886 14.315 19.1411C14.9675 19.7936 15.7792 20.1198 16.75 20.1198Z" fill="#D2CDD8"/>
</svg>
