<svg width="19" height="19" viewBox="0 0 19 19" fill="none" xmlns="http://www.w3.org/2000/svg">
<g id="Component 1" clip-path="url(#clip0_4301_2162)">
<path id="Down" fill-rule="evenodd" clip-rule="evenodd" d="M13.4454 1.82764C13.3054 1.67498 13.0682 1.66469 12.9155 1.80465L4.8893 9.16327C4.43155 9.58669 4.42534 10.3222 4.89158 10.7434C4.89208 10.7439 4.89258 10.7443 4.89308 10.7448L12.9154 18.1073C13.068 18.2474 13.3052 18.2372 13.4452 18.0846C13.5853 17.932 13.5751 17.6948 13.4225 17.5548L5.39482 10.1873C5.2627 10.0684 5.25684 9.84542 5.39815 9.71425C5.3983 9.71411 5.398 9.71438 5.39815 9.71425L13.4224 2.35747C13.575 2.21751 13.5853 1.98029 13.4454 1.82764Z" fill="#8F839D"/>
</g>
<defs>
<clipPath id="clip0_4301_2162">
<rect width="18" height="18" fill="white" transform="matrix(0 -1 -1 0 18.0439 18.9561)"/>
</clipPath>
</defs>
</svg>
