<svg width="19" height="19" viewBox="0 0 19 19" fill="none" xmlns="http://www.w3.org/2000/svg">
<g id="Component 1" clip-path="url(#clip0_4301_43)">
<path id="Down" fill-rule="evenodd" clip-rule="evenodd" d="M5.55465 1.82764C5.69461 1.67498 5.93182 1.66469 6.08448 1.80465L14.1107 9.16327C14.5685 9.58669 14.5747 10.3222 14.1084 10.7434C14.1079 10.7439 14.1074 10.7443 14.1069 10.7448L6.08462 18.1073C5.93203 18.2474 5.69481 18.2372 5.55477 18.0846C5.41474 17.932 5.42491 17.6948 5.5775 17.5548L13.6052 10.1873C13.7373 10.0684 13.7432 9.84542 13.6019 9.71425C13.6017 9.71411 13.602 9.71438 13.6019 9.71425L5.57764 2.35747C5.42498 2.21751 5.41469 1.98029 5.55465 1.82764Z" fill="#8F839D"/>
</g>
<defs>
<clipPath id="clip0_4301_43">
<rect width="18" height="18" fill="white" transform="matrix(0 -1 1 0 0.956055 18.9561)"/>
</clipPath>
</defs>
</svg>
